<svg version="1.2" xmlns="http://www.w3.org/2000/svg" viewBox="0 0 246 59" width="246" height="59">
	<title>New Project</title>
	<style>
		.s0 { fill: #8b3dff } 
		.s1 { fill: #ffffff } 
	</style>
	<path id="CHAT" class="s0" aria-label="CHAT"  d="m24.8 36.2h7.3q-0.4 5.7-4.3 9-3.8 3.3-10 3.3-6.9 0-10.8-4.6-3.9-4.6-3.9-12.6v-2.2q0-5.1 1.8-9.1 1.8-3.9 5.2-5.9 3.3-2.1 7.8-2.1 6.1 0 9.9 3.3 3.7 3.3 4.3 9.2h-7.3q-0.3-3.4-1.9-5-1.7-1.5-5-1.5-3.7 0-5.5 2.6-1.8 2.6-1.9 8.1v2.7q0 5.8 1.8 8.4 1.7 2.7 5.5 2.7 3.4 0 5-1.5 1.7-1.6 2-4.8zm41-23.7v35.5h-7.3v-15.2h-14.3v15.2h-7.3v-35.5h7.3v14.4h14.3v-14.4zm29.4 35.5l-2.5-7.3h-12.8l-2.5 7.3h-7.8l13.3-35.5h6.7l13.4 35.5zm-9-26.6l-4.4 13.3h8.9zm43.9-8.9v5.9h-10.9v29.6h-7.4v-29.6h-10.7v-5.9z"/>
	<path id="Shape 1" class="s0" d="m137 1h109v58h-109z"/>
	<path id="HUB" class="s1" aria-label="HUB"  d="m174.1 12.5v35.5h-7.3v-15.2h-14.3v15.2h-7.3v-35.5h7.3v14.4h14.3v-14.4zm25.9 0h7.4v23.4q0 5.8-3.7 9.2-3.6 3.4-9.9 3.4-6.3 0-9.9-3.3-3.7-3.3-3.8-9.1v-23.6h7.4v23.4q0 3.5 1.6 5.1 1.7 1.6 4.7 1.6 6.1 0 6.2-6.5zm27.2 35.6h-13.8v-35.6h12.4q6.5 0 9.9 2.5 3.3 2.5 3.3 7.3 0 2.6-1.3 4.6-1.4 1.9-3.8 2.9 2.8 0.7 4.3 2.7 1.6 2.1 1.6 5.1 0 5.1-3.3 7.8-3.2 2.6-9.3 2.7zm0.2-15.5h-6.7v9.6h6.3q2.6 0 4-1.2 1.5-1.3 1.5-3.5 0-4.8-5.1-4.9zm-6.7-14.2v9h5.4q5.6-0.1 5.6-4.4 0-2.4-1.4-3.5-1.4-1.1-4.5-1.1z"/>
</svg>